<svg width="159" height="45" viewBox="0 0 159 45" fill="none" xmlns="http://www.w3.org/2000/svg">
<path d="M24.766 22.162C27.1653 22.6093 29.1377 23.809 30.683 25.761C32.2283 27.713 33.001 29.9497 33.001 32.471C33.001 34.7483 32.4317 36.7613 31.293 38.51C30.195 40.218 28.5887 41.56 26.474 42.536C24.3593 43.512 21.8583 44 18.971 44H0.609994V1.422H18.178C21.0653 1.422 23.546 1.88967 25.62 2.825C27.7347 3.76033 29.3207 5.06167 30.378 6.729C31.476 8.39633 32.025 10.2873 32.025 12.402C32.025 14.8827 31.354 16.9567 30.012 18.624C28.7107 20.2913 26.962 21.4707 24.766 22.162ZM9.14999 18.99H16.958C18.9913 18.99 20.557 18.5427 21.655 17.648C22.753 16.7127 23.302 15.391 23.302 13.683C23.302 11.975 22.753 10.6533 21.655 9.718C20.557 8.78266 18.9913 8.315 16.958 8.315H9.14999V18.99ZM17.751 37.046C19.825 37.046 21.4313 36.558 22.57 35.582C23.7493 34.606 24.339 33.2233 24.339 31.434C24.339 29.604 23.729 28.1807 22.509 27.164C21.289 26.1067 19.642 25.578 17.568 25.578H9.14999V37.046H17.751ZM73.9063 1.422V44H65.3663V25.883H47.1273V44H38.5873V1.422H47.1273V18.929H65.3663V1.422H73.9063Z" fill="#FD7401"/>
<path d="M120.193 1.422V44H111.653V16.306L100.246 44H93.7799L82.3119 16.306V44H73.7719V1.422H83.4709L97.0129 33.081L110.555 1.422H120.193ZM143.337 44.427C140.368 44.427 137.684 43.9187 135.285 42.902C132.926 41.8853 131.056 40.4213 129.673 38.51C128.29 36.5987 127.579 34.3417 127.538 31.739H136.688C136.81 33.4877 137.42 34.8703 138.518 35.887C139.657 36.9037 141.202 37.412 143.154 37.412C145.147 37.412 146.712 36.9443 147.851 36.009C148.99 35.033 149.559 33.7723 149.559 32.227C149.559 30.9663 149.173 29.9293 148.4 29.116C147.627 28.3027 146.651 27.6723 145.472 27.225C144.333 26.737 142.747 26.2083 140.714 25.639C137.949 24.8257 135.692 24.0327 133.943 23.26C132.235 22.4467 130.751 21.247 129.49 19.661C128.27 18.0343 127.66 15.879 127.66 13.195C127.66 10.6737 128.29 8.47766 129.551 6.607C130.812 4.73633 132.581 3.313 134.858 2.337C137.135 1.32033 139.738 0.812 142.666 0.812C147.058 0.812 150.616 1.88967 153.341 4.045C156.106 6.15966 157.631 9.12833 157.916 12.951H148.522C148.441 11.487 147.81 10.2873 146.631 9.352C145.492 8.376 143.967 7.888 142.056 7.888C140.389 7.888 139.047 8.315 138.03 9.169C137.054 10.023 136.566 11.2633 136.566 12.89C136.566 14.0287 136.932 14.9843 137.664 15.757C138.437 16.489 139.372 17.099 140.47 17.587C141.609 18.0343 143.195 18.563 145.228 19.173C147.993 19.9863 150.25 20.7997 151.999 21.613C153.748 22.4263 155.252 23.6463 156.513 25.273C157.774 26.8997 158.404 29.0347 158.404 31.678C158.404 33.9553 157.814 36.07 156.635 38.022C155.456 39.974 153.727 41.5397 151.45 42.719C149.173 43.8577 146.468 44.427 143.337 44.427Z" fill="black"/>
</svg>
